<?xml version="1.0" encoding="UTF-8" standalone="no"?>
<!-- Created with Inkscape (http://www.inkscape.org/) -->

<svg
   width="297mm"
   height="210mm"
   viewBox="0 0 297 210"
   version="1.1"
   id="svg5"
   xml:space="preserve"
   inkscape:version="1.2.2 (732a01da63, 2022-12-09)"
   sodipodi:docname="schematic.svg"
   xmlns:inkscape="http://www.inkscape.org/namespaces/inkscape"
   xmlns:sodipodi="http://sodipodi.sourceforge.net/DTD/sodipodi-0.dtd"
   xmlns="http://www.w3.org/2000/svg"
   xmlns:svg="http://www.w3.org/2000/svg"><sodipodi:namedview
     id="namedview7"
     pagecolor="#ffffff"
     bordercolor="#666666"
     borderopacity="1.0"
     inkscape:showpageshadow="2"
     inkscape:pageopacity="0.0"
     inkscape:pagecheckerboard="0"
     inkscape:deskcolor="#d1d1d1"
     inkscape:document-units="mm"
     showgrid="false"
     inkscape:zoom="2.587745"
     inkscape:cx="450.19893"
     inkscape:cy="474.15801"
     inkscape:window-width="3840"
     inkscape:window-height="2066"
     inkscape:window-x="-11"
     inkscape:window-y="-11"
     inkscape:window-maximized="1"
     inkscape:current-layer="layer2" /><defs
     id="defs2"><marker
       style="overflow:visible"
       id="marker4103"
       refX="0"
       refY="0"
       orient="auto"
       inkscape:stockid="Dot"
       markerWidth="5.6666665"
       markerHeight="5.6666665"
       viewBox="0 0 5.6666667 5.6666667"
       inkscape:isstock="true"
       inkscape:collect="always"
       preserveAspectRatio="xMidYMid"><path
         transform="scale(0.5)"
         style="fill:context-stroke;fill-rule:evenodd;stroke:context-stroke;stroke-width:1pt"
         d="M 5,0 C 5,2.76 2.76,5 0,5 -2.76,5 -5,2.76 -5,0 c 0,-2.76 2.3,-5 5,-5 2.76,0 5,2.24 5,5 z"
         id="path4101"
         sodipodi:nodetypes="sssss" /></marker><marker
       style="overflow:visible"
       id="marker4005"
       refX="0"
       refY="0"
       orient="auto"
       inkscape:stockid="Dot"
       markerWidth="5.6666665"
       markerHeight="5.6666665"
       viewBox="0 0 5.6666667 5.6666667"
       inkscape:isstock="true"
       inkscape:collect="always"
       preserveAspectRatio="xMidYMid"><path
         transform="scale(0.5)"
         style="fill:context-stroke;fill-rule:evenodd;stroke:context-stroke;stroke-width:1pt"
         d="M 5,0 C 5,2.76 2.76,5 0,5 -2.76,5 -5,2.76 -5,0 c 0,-2.76 2.3,-5 5,-5 2.76,0 5,2.24 5,5 z"
         id="path4003"
         sodipodi:nodetypes="sssss" /></marker><marker
       style="overflow:visible"
       id="Dot"
       refX="0"
       refY="0"
       orient="auto"
       inkscape:stockid="Dot"
       markerWidth="5.6666665"
       markerHeight="5.6666665"
       viewBox="0 0 5.6666667 5.6666667"
       inkscape:isstock="true"
       inkscape:collect="always"
       preserveAspectRatio="xMidYMid"><path
         transform="scale(0.5)"
         style="fill:context-stroke;fill-rule:evenodd;stroke:context-stroke;stroke-width:1pt"
         d="M 5,0 C 5,2.76 2.76,5 0,5 -2.76,5 -5,2.76 -5,0 c 0,-2.76 2.3,-5 5,-5 2.76,0 5,2.24 5,5 z"
         id="Dot1"
         sodipodi:nodetypes="sssss" /></marker><marker
       id="DistanceX"
       orient="auto"
       refX="0.0"
       refY="0.0"
       style="overflow:visible"><path
         d="M 3,-3 L -3,3 M 0,-5 L  0,5"
         style="stroke:#000000; stroke-width:0.5"
         id="path134" /></marker><pattern
       id="Hatch"
       patternUnits="userSpaceOnUse"
       width="8"
       height="8"
       x="0"
       y="0"><path
         d="M8 4 l-4,4"
         stroke="#000000"
         stroke-width="0.25"
         linecap="square"
         id="path137" /><path
         d="M6 2 l-4,4"
         stroke="#000000"
         stroke-width="0.25"
         linecap="square"
         id="path139" /><path
         d="M4 0 l-4,4"
         stroke="#000000"
         stroke-width="0.25"
         linecap="square"
         id="path141" /></pattern><symbol
       id="*MODEL_SPACE" /><symbol
       id="*PAPER_SPACE" /><marker
       id="DistanceX-7"
       orient="auto"
       refX="0.0"
       refY="0.0"
       style="overflow:visible"><path
         d="M 3,-3 L -3,3 M 0,-5 L  0,5"
         style="stroke:#000000; stroke-width:0.5"
         id="path476" /></marker><pattern
       id="Hatch-0"
       patternUnits="userSpaceOnUse"
       width="8"
       height="8"
       x="0"
       y="0"><path
         d="M8 4 l-4,4"
         stroke="#000000"
         stroke-width="0.25"
         linecap="square"
         id="path479" /><path
         d="M6 2 l-4,4"
         stroke="#000000"
         stroke-width="0.25"
         linecap="square"
         id="path481" /><path
         d="M4 0 l-4,4"
         stroke="#000000"
         stroke-width="0.25"
         linecap="square"
         id="path483" /></pattern><symbol
       id="*MODEL_SPACE-5" /><symbol
       id="*PAPER_SPACE-8" /><marker
       style="overflow:visible"
       id="Dot-8"
       refX="0"
       refY="0"
       orient="auto"
       inkscape:stockid="Dot"
       markerWidth="5.6666665"
       markerHeight="5.6666665"
       viewBox="0 0 5.6666667 5.6666667"
       inkscape:isstock="true"
       inkscape:collect="always"
       preserveAspectRatio="xMidYMid"><path
         transform="scale(0.5)"
         style="fill:context-stroke;fill-rule:evenodd;stroke:context-stroke;stroke-width:1pt"
         d="M 5,0 C 5,2.76 2.76,5 0,5 -2.76,5 -5,2.76 -5,0 c 0,-2.76 2.3,-5 5,-5 2.76,0 5,2.24 5,5 z"
         id="Dot1-5"
         sodipodi:nodetypes="sssss" /></marker><marker
       style="overflow:visible"
       id="marker4005-8"
       refX="0"
       refY="0"
       orient="auto"
       inkscape:stockid="Dot"
       markerWidth="5.6666665"
       markerHeight="5.6666665"
       viewBox="0 0 5.6666667 5.6666667"
       inkscape:isstock="true"
       inkscape:collect="always"
       preserveAspectRatio="xMidYMid"><path
         transform="scale(0.5)"
         style="fill:context-stroke;fill-rule:evenodd;stroke:context-stroke;stroke-width:1pt"
         d="M 5,0 C 5,2.76 2.76,5 0,5 -2.76,5 -5,2.76 -5,0 c 0,-2.76 2.3,-5 5,-5 2.76,0 5,2.24 5,5 z"
         id="path4003-1"
         sodipodi:nodetypes="sssss" /></marker><marker
       style="overflow:visible"
       id="Dot-2"
       refX="0"
       refY="0"
       orient="auto"
       inkscape:stockid="Dot"
       markerWidth="5.6666665"
       markerHeight="5.6666665"
       viewBox="0 0 5.6666667 5.6666667"
       inkscape:isstock="true"
       inkscape:collect="always"
       preserveAspectRatio="xMidYMid"><path
         transform="scale(0.5)"
         style="fill:context-stroke;fill-rule:evenodd;stroke:context-stroke;stroke-width:1pt"
         d="M 5,0 C 5,2.76 2.76,5 0,5 -2.76,5 -5,2.76 -5,0 c 0,-2.76 2.3,-5 5,-5 2.76,0 5,2.24 5,5 z"
         id="Dot1-1"
         sodipodi:nodetypes="sssss" /></marker><marker
       style="overflow:visible"
       id="marker4005-7"
       refX="0"
       refY="0"
       orient="auto"
       inkscape:stockid="Dot"
       markerWidth="5.6666665"
       markerHeight="5.6666665"
       viewBox="0 0 5.6666667 5.6666667"
       inkscape:isstock="true"
       inkscape:collect="always"
       preserveAspectRatio="xMidYMid"><path
         transform="scale(0.5)"
         style="fill:context-stroke;fill-rule:evenodd;stroke:context-stroke;stroke-width:1pt"
         d="M 5,0 C 5,2.76 2.76,5 0,5 -2.76,5 -5,2.76 -5,0 c 0,-2.76 2.3,-5 5,-5 2.76,0 5,2.24 5,5 z"
         id="path4003-4"
         sodipodi:nodetypes="sssss" /></marker><marker
       style="overflow:visible"
       id="Dot-7"
       refX="0"
       refY="0"
       orient="auto"
       inkscape:stockid="Dot"
       markerWidth="5.6666665"
       markerHeight="5.6666665"
       viewBox="0 0 5.6666667 5.6666667"
       inkscape:isstock="true"
       inkscape:collect="always"
       preserveAspectRatio="xMidYMid"><path
         transform="scale(0.5)"
         style="fill:context-stroke;fill-rule:evenodd;stroke:context-stroke;stroke-width:1pt"
         d="M 5,0 C 5,2.76 2.76,5 0,5 -2.76,5 -5,2.76 -5,0 c 0,-2.76 2.3,-5 5,-5 2.76,0 5,2.24 5,5 z"
         id="Dot1-8"
         sodipodi:nodetypes="sssss" /></marker><marker
       style="overflow:visible"
       id="marker4005-3"
       refX="0"
       refY="0"
       orient="auto"
       inkscape:stockid="Dot"
       markerWidth="5.6666665"
       markerHeight="5.6666665"
       viewBox="0 0 5.6666667 5.6666667"
       inkscape:isstock="true"
       inkscape:collect="always"
       preserveAspectRatio="xMidYMid"><path
         transform="scale(0.5)"
         style="fill:context-stroke;fill-rule:evenodd;stroke:context-stroke;stroke-width:1pt"
         d="M 5,0 C 5,2.76 2.76,5 0,5 -2.76,5 -5,2.76 -5,0 c 0,-2.76 2.3,-5 5,-5 2.76,0 5,2.24 5,5 z"
         id="path4003-5"
         sodipodi:nodetypes="sssss" /></marker><marker
       style="overflow:visible"
       id="Dot-74"
       refX="0"
       refY="0"
       orient="auto"
       inkscape:stockid="Dot"
       markerWidth="5.6666665"
       markerHeight="5.6666665"
       viewBox="0 0 5.6666667 5.6666667"
       inkscape:isstock="true"
       inkscape:collect="always"
       preserveAspectRatio="xMidYMid"><path
         transform="scale(0.5)"
         style="fill:context-stroke;fill-rule:evenodd;stroke:context-stroke;stroke-width:1pt"
         d="M 5,0 C 5,2.76 2.76,5 0,5 -2.76,5 -5,2.76 -5,0 c 0,-2.76 2.3,-5 5,-5 2.76,0 5,2.24 5,5 z"
         id="Dot1-9"
         sodipodi:nodetypes="sssss" /></marker><marker
       style="overflow:visible"
       id="marker4005-4"
       refX="0"
       refY="0"
       orient="auto"
       inkscape:stockid="Dot"
       markerWidth="5.6666665"
       markerHeight="5.6666665"
       viewBox="0 0 5.6666667 5.6666667"
       inkscape:isstock="true"
       inkscape:collect="always"
       preserveAspectRatio="xMidYMid"><path
         transform="scale(0.5)"
         style="fill:context-stroke;fill-rule:evenodd;stroke:context-stroke;stroke-width:1pt"
         d="M 5,0 C 5,2.76 2.76,5 0,5 -2.76,5 -5,2.76 -5,0 c 0,-2.76 2.3,-5 5,-5 2.76,0 5,2.24 5,5 z"
         id="path4003-3"
         sodipodi:nodetypes="sssss" /></marker></defs><g
     inkscape:label="Layer 1"
     inkscape:groupmode="layer"
     id="layer1"><g
       inkscape:label="0"
       id="g588"
       transform="matrix(0.37121252,0,0,0.37129706,148.50001,-311.78826)"
       style="stroke-width:0.712674"><path
         d="m 219.2126,1122.5197 a 219.2126,219.2126 0 0 0 -438.4252,0 219.2126,219.2126 0 0 0 438.4252,0 z"
         style="fill:none;stroke:#000000;stroke-width:0.712674"
         id="path494" /><path
         style="fill:none;stroke:#000000;stroke-width:0.712674"
         d="m -132.283,1122.52 v -64.25"
         id="path496" /><path
         d="m -132.28347,1058.2677 h -68.03149 z"
         style="fill:none;stroke:#000000;stroke-width:0.712674"
         id="path498" /><path
         style="fill:none;stroke:#000000;stroke-width:0.712674"
         d="m -336.378,1092.28 v 52.92"
         id="path500" /><path
         style="fill:none;stroke:#000000;stroke-width:0.712674"
         d="m -200.315,1179.21 h 68.032"
         id="path502" /><path
         style="fill:none;stroke:#000000;stroke-width:0.712674"
         d="M -132.283,1179.21 V 1058.27"
         id="path504" /><path
         style="fill:none;stroke:#000000;stroke-width:0.712674"
         d="m -200.315,1058.27 -136.063,34.01"
         id="path506" /><path
         style="fill:none;stroke:#000000;stroke-width:0.712674"
         d="M -200.315,1179.21 -336.378,1145.2"
         id="path508" /><path
         d="m -234.33071,1118.7402 a 45.354331,45.354331 0 0 0 -90.70866,0 45.354331,45.354331 0 0 0 90.70866,0 z"
         style="fill:none;stroke:#000000;stroke-width:0.712674;stroke-dasharray:1.34681, 0.673405"
         id="path510" /><path
         style="fill:none;stroke:#000000;stroke-width:0.712674;stroke-dasharray:1.34681, 0.673405"
         d="m 117.165,1254.8 h -234.33"
         id="path514" /><path
         style="fill:none;stroke:#000000;stroke-width:0.712674;stroke-dasharray:1.34681, 0.673405"
         d="m -117.165,1254.8 v 45.36"
         id="path516" /><path
         style="fill:none;stroke:#000000;stroke-width:0.712674;stroke-dasharray:1.34681, 0.673405"
         d="m -117.165,1300.16 h 234.33"
         id="path518" /><path
         style="fill:none;stroke:#000000;stroke-width:0.712674;stroke-dasharray:1.34681, 0.673405"
         d="M 117.165,1300.16 V 1254.8"
         id="path520" /><path
         d="m -26.456693,952.44094 a 18.897638,18.897638 0 0 0 -37.795276,0 18.897638,18.897638 0 0 0 37.795276,0 z"
         style="fill:none;stroke:#000000;stroke-width:0.712674;stroke-dasharray:1.34681, 0.673405"
         id="path526" /><path
         d="m -81.259844,986.45669 a 5.669291,5.669291 0 0 0 -11.338582,0 5.669291,5.669291 0 0 0 11.338582,0 z"
         style="fill:none;stroke:#000000;stroke-width:0.712674;stroke-dasharray:1.34681, 0.673405"
         id="path528" /><path
         d="m -83.149608,1020.4724 a 15.118111,15.118111 0 0 0 -30.236222,0 15.118111,15.118111 0 0 0 30.236222,0 z"
         style="fill:none;stroke:#000000;stroke-width:0.712674;stroke-dasharray:1.34681, 0.673405"
         id="path532" /><path
         d="m -17.637797,1020.4724 a 15.11811,15.11811 0 0 0 -30.23622,0 15.11811,15.11811 0 0 0 30.23622,0 z"
         style="fill:none;stroke:#000000;stroke-width:0.712674;stroke-dasharray:1.34681, 0.673405"
         id="path534" /><path
         d="m 47.874014,1020.4724 a 15.11811,15.11811 0 0 0 -30.23622,0 15.11811,15.11811 0 0 0 30.23622,0 z"
         style="fill:none;stroke:#000000;stroke-width:0.712674;stroke-dasharray:1.34681, 0.673405"
         id="path536" /><path
         d="m 113.38582,1020.4724 a 15.11811,15.11811 0 0 0 -30.236215,0 15.11811,15.11811 0 0 0 30.236215,0 z"
         style="fill:none;stroke:#000000;stroke-width:0.712674;stroke-dasharray:1.34681, 0.673405"
         id="path538" /><path
         d="m -83.149608,1060.1575 a 15.118111,15.118111 0 0 0 -30.236222,0 15.118111,15.118111 0 0 0 30.236222,0 z"
         style="fill:none;stroke:#000000;stroke-width:0.712674;stroke-dasharray:1.34681, 0.673405"
         id="path540" /><path
         d="m -17.637797,1060.1575 a 15.11811,15.11811 0 0 0 -30.23622,0 15.11811,15.11811 0 0 0 30.23622,0 z"
         style="fill:none;stroke:#000000;stroke-width:0.712674;stroke-dasharray:1.34681, 0.673405"
         id="path542" /><path
         d="m 47.874014,1060.1575 a 15.11811,15.11811 0 0 0 -30.23622,0 15.11811,15.11811 0 0 0 30.23622,0 z"
         style="fill:none;stroke:#000000;stroke-width:0.712674;stroke-dasharray:1.34681, 0.673405"
         id="path544" /><path
         d="m 113.38582,1060.1575 a 15.11811,15.11811 0 0 0 -30.236215,0 15.11811,15.11811 0 0 0 30.236215,0 z"
         style="fill:none;stroke:#000000;stroke-width:0.712674;stroke-dasharray:1.34681, 0.673405"
         id="path546" /><path
         d="m -83.149608,1099.8425 a 15.118111,15.118111 0 0 0 -30.236222,0 15.118111,15.118111 0 0 0 30.236222,0 z"
         style="fill:none;stroke:#000000;stroke-width:0.712674;stroke-dasharray:1.34681, 0.673405"
         id="path548" /><path
         d="m -17.637797,1099.8425 a 15.11811,15.11811 0 0 0 -30.23622,0 15.11811,15.11811 0 0 0 30.23622,0 z"
         style="fill:none;stroke:#000000;stroke-width:0.712674;stroke-dasharray:1.34681, 0.673405"
         id="path550" /><path
         d="m 47.874014,1099.8425 a 15.11811,15.11811 0 0 0 -30.23622,0 15.11811,15.11811 0 0 0 30.23622,0 z"
         style="fill:none;stroke:#000000;stroke-width:0.712674;stroke-dasharray:1.34681, 0.673405"
         id="path552" /><path
         d="m 113.38582,1099.8425 a 15.11811,15.11811 0 0 0 -30.236215,0 15.11811,15.11811 0 0 0 30.236215,0 z"
         style="fill:none;stroke:#000000;stroke-width:0.712674;stroke-dasharray:1.34681, 0.673405"
         id="path554" /><path
         d="m -83.149608,1139.5276 a 15.118111,15.118111 0 0 0 -30.236222,0 15.118111,15.118111 0 0 0 30.236222,0 z"
         style="fill:none;stroke:#000000;stroke-width:0.712674;stroke-dasharray:1.34681, 0.673405"
         id="path556" /><path
         d="m -17.637797,1139.5276 a 15.11811,15.11811 0 0 0 -30.23622,0 15.11811,15.11811 0 0 0 30.23622,0 z"
         style="fill:none;stroke:#000000;stroke-width:0.712674;stroke-dasharray:1.34681, 0.673405"
         id="path558" /><path
         d="m 47.874014,1139.5276 a 15.11811,15.11811 0 0 0 -30.23622,0 15.11811,15.11811 0 0 0 30.23622,0 z"
         style="fill:none;stroke:#000000;stroke-width:0.712674;stroke-dasharray:1.34681, 0.673405"
         id="path560" /><path
         d="m 113.38582,1139.5276 a 15.11811,15.11811 0 0 0 -30.236215,0 15.11811,15.11811 0 0 0 30.236215,0 z"
         style="fill:none;stroke:#000000;stroke-width:0.712674;stroke-dasharray:1.34681, 0.673405"
         id="path562" /><path
         d="m -83.149608,1179.2126 a 15.118111,15.118111 0 0 0 -30.236222,0 15.118111,15.118111 0 0 0 30.236222,0 z"
         style="fill:none;stroke:#000000;stroke-width:0.712674;stroke-dasharray:1.34681, 0.673405"
         id="path564" /><path
         d="m -17.637797,1179.2126 a 15.11811,15.11811 0 0 0 -30.23622,0 15.11811,15.11811 0 0 0 30.23622,0 z"
         style="fill:none;stroke:#000000;stroke-width:0.712674;stroke-dasharray:1.34681, 0.673405"
         id="path566" /><path
         d="m 47.874014,1179.2126 a 15.11811,15.11811 0 0 0 -30.23622,0 15.11811,15.11811 0 0 0 30.23622,0 z"
         style="fill:none;stroke:#000000;stroke-width:0.712674;stroke-dasharray:1.34681, 0.673405"
         id="path568" /><path
         d="m 113.38582,1179.2126 a 15.11811,15.11811 0 0 0 -30.236215,0 15.11811,15.11811 0 0 0 30.236215,0 z"
         style="fill:none;stroke:#000000;stroke-width:0.712674;stroke-dasharray:1.34681, 0.673405"
         id="path570" /><path
         d="m -83.149608,1218.8976 a 15.118111,15.118111 0 0 0 -30.236222,0 15.118111,15.118111 0 0 0 30.236222,0 z"
         style="fill:none;stroke:#000000;stroke-width:0.712674;stroke-dasharray:1.34681, 0.673405"
         id="path572" /><path
         d="m -17.637797,1218.8976 a 15.11811,15.11811 0 0 0 -30.23622,0 15.11811,15.11811 0 0 0 30.23622,0 z"
         style="fill:none;stroke:#000000;stroke-width:0.712674;stroke-dasharray:1.34681, 0.673405"
         id="path574" /><path
         d="m 113.38582,1218.8976 a 15.11811,15.11811 0 0 0 -30.236215,0 15.11811,15.11811 0 0 0 30.236215,0 z"
         style="fill:none;stroke:#000000;stroke-width:0.712674;stroke-dasharray:1.34681, 0.673405"
         id="path578" /><path
         d="m 200.31496,1058.2677 136.063,34.0158 v 52.9134 l -136.063,34.0157 h -68.03149 v -120.9449 z"
         style="fill:none;stroke:#000000;stroke-width:0.712674"
         id="path580" /><path
         d="m 325.03937,1118.7402 a 45.354331,45.354331 0 0 0 -90.70866,0 45.354331,45.354331 0 0 0 90.70866,0 z"
         style="fill:none;stroke:#000000;stroke-width:0.712674;stroke-dasharray:1.34681, 0.673405"
         id="path582" /><path
         d="m 64.251969,952.44094 a 18.897638,18.897638 0 0 0 -37.795276,0 18.897638,18.897638 0 0 0 37.795276,0 z"
         style="fill:none;stroke:#000000;stroke-width:0.712674;stroke-dasharray:1.34681, 0.673405"
         id="path584" /><path
         d="m 92.598426,986.45669 a 5.669291,5.669291 0 0 0 -11.338582,0 5.669291,5.669291 0 0 0 11.338582,0 z"
         style="fill:none;stroke:#000000;stroke-width:0.712674;stroke-dasharray:1.34681, 0.673405"
         id="path586" /><path
         style="fill:none;stroke:#000000;stroke-width:0.712673px;stroke-linecap:butt;stroke-linejoin:miter;stroke-opacity:1;marker-start:url(#marker4103);marker-end:url(#Dot)"
         d="m -98.267742,1020.4736 h 65.51181"
         id="path1284" /><path
         style="fill:none;stroke:#000000;stroke-width:0.712673px;stroke-linecap:butt;stroke-linejoin:miter;stroke-opacity:1;marker-start:url(#marker4103);marker-end:url(#Dot)"
         d="m 32.755878,1020.4736 65.511811,-1e-4"
         id="path1286" /><path
         style="fill:none;stroke:#000000;stroke-width:0.712673px;stroke-linecap:butt;stroke-linejoin:miter;stroke-opacity:1;marker-start:url(#marker4103);marker-end:url(#Dot)"
         d="m -98.267742,1060.1587 h 65.51181"
         id="path1288" /><path
         style="fill:none;stroke:#000000;stroke-width:0.712673px;stroke-linecap:butt;stroke-linejoin:miter;stroke-opacity:1;marker-start:url(#marker4103);marker-end:url(#Dot)"
         d="m 32.755878,1060.1587 65.511811,-10e-5"
         id="path1290" /><path
         style="fill:none;stroke:#000000;stroke-width:0.712673px;stroke-linecap:butt;stroke-linejoin:miter;stroke-opacity:1;marker-start:url(#marker4103);marker-end:url(#Dot)"
         d="m -98.267481,1099.8438 h 65.51181"
         id="path1284-2" /><path
         style="fill:none;stroke:#000000;stroke-width:0.712673px;stroke-linecap:butt;stroke-linejoin:miter;stroke-opacity:1;marker-start:url(#marker4103);marker-end:url(#Dot)"
         d="m 32.756139,1099.8438 65.511811,-1e-4"
         id="path1286-4" /><path
         style="fill:none;stroke:#000000;stroke-width:0.712673px;stroke-linecap:butt;stroke-linejoin:miter;stroke-opacity:1;marker-start:url(#marker4103);marker-end:url(#Dot)"
         d="m -98.267481,1139.5289 h 65.51181"
         id="path1288-8" /><path
         style="fill:none;stroke:#000000;stroke-width:0.712673px;stroke-linecap:butt;stroke-linejoin:miter;stroke-opacity:1;marker-start:url(#marker4103);marker-end:url(#Dot)"
         d="m 32.756139,1139.5289 65.511811,-10e-5"
         id="path1290-5" /><path
         style="fill:none;stroke:#000000;stroke-width:0.712673px;stroke-linecap:butt;stroke-linejoin:miter;stroke-opacity:1;marker-start:url(#marker4103);marker-end:url(#Dot)"
         d="m -98.267481,1179.2141 h 65.51181"
         id="path1284-7" /><path
         style="fill:none;stroke:#000000;stroke-width:0.712673px;stroke-linecap:butt;stroke-linejoin:miter;stroke-opacity:1;marker-start:url(#marker4103);marker-end:url(#Dot)"
         d="m 32.756139,1179.2141 65.51181,-10e-5"
         id="path1286-2" /><path
         style="fill:none;stroke:#000000;stroke-width:0.712673px;stroke-linecap:butt;stroke-linejoin:miter;stroke-opacity:1"
         d="m -98.267481,1218.8992 h 65.51181"
         id="path1288-5" /></g><g
       inkscape:groupmode="layer"
       id="layer2"
       inkscape:label="2"
       style="display:inline"><path
         style="fill:none;stroke:#000000;stroke-width:0.712673px;stroke-linecap:butt;stroke-linejoin:miter;stroke-dasharray:none;stroke-dashoffset:0;stroke-opacity:1;marker-start:url(#Dot);marker-end:url(#marker4005)"
         d="m -65.511833,1060.1587 131.02362,-39.6852"
         id="path3604"
         transform="matrix(0.37121251,0,0,0.37129707,148.50001,-311.78825)" /><path
         style="fill:none;stroke:#000000;stroke-width:0.264583px;stroke-linecap:butt;stroke-linejoin:miter;stroke-opacity:1"
         d="m 136.3406,67.110585 h 24.3188"
         id="path4971" /><rect
         style="fill:#ffffff;fill-opacity:1;stroke:#000000;stroke-width:0.269357;stroke-linecap:round;stroke-dasharray:none;stroke-dashoffset:0"
         id="rect4922"
         width="26.66939"
         height="15.89021"
         x="-13.334724"
         y="1012.8145"
         transform="matrix(0.37121251,0,0,0.37129707,148.50001,-311.78825)" /><text
         xml:space="preserve"
         style="font-size:19.0046px;line-height:1;font-family:'Microsoft Yi Baiti';-inkscape-font-specification:'Microsoft Yi Baiti';letter-spacing:0px;word-spacing:0px;stroke-width:0.507904"
         x="-9.112587"
         y="1025.9564"
         id="text3660-7"
         transform="matrix(0.37125479,0,0,0.37125479,148.50001,-311.78825)"><tspan
           sodipodi:role="line"
           id="tspan3658-8"
           style="font-size:19.0046px;stroke-width:0.507904"
           x="-9.112587"
           y="1025.9564">R1</tspan></text><rect
         style="fill:#ffffff;fill-opacity:1;stroke:#000000;stroke-width:0.1;stroke-linecap:round;stroke-dasharray:none;stroke-dashoffset:0"
         id="rect4922-4"
         width="9.9000111"
         height="5.8999887"
         x="143.54999"
         y="71.528053" /><text
         xml:space="preserve"
         style="font-size:7.05555px;line-height:1;font-family:'Microsoft Yi Baiti';-inkscape-font-specification:'Microsoft Yi Baiti';letter-spacing:0px;word-spacing:0px;stroke-width:0.188562"
         x="145.11691"
         y="76.364227"
         id="text3660-7-3"><tspan
           sodipodi:role="line"
           id="tspan3658-8-9"
           style="font-size:7.05555px;stroke-width:0.188562"
           x="145.11691"
           y="76.364227">R2</tspan></text><path
         style="display:inline;fill:none;stroke:#000000;stroke-width:0.264583px;stroke-linecap:butt;stroke-linejoin:miter;stroke-dasharray:none;stroke-dashoffset:0;stroke-opacity:1;marker-start:url(#Dot-8);marker-end:url(#marker4005-8)"
         d="M 124.181,96.574493 172.8186,81.839495"
         id="path3604-6" /><path
         style="display:inline;fill:none;stroke:#000000;stroke-width:0.264583px;stroke-linecap:butt;stroke-linejoin:miter;stroke-opacity:1"
         d="m 136.3404,81.839512 h 24.3188"
         id="path4971-4" /><rect
         style="display:inline;fill:#ffffff;fill-opacity:1;stroke:#000000;stroke-width:0.1;stroke-linecap:round;stroke-dasharray:none;stroke-dashoffset:0"
         id="rect4922-45"
         width="9.9000111"
         height="5.8999887"
         x="143.5498"
         y="78.995735" /><text
         xml:space="preserve"
         style="font-size:7.05555px;line-height:1;font-family:'Microsoft Yi Baiti';-inkscape-font-specification:'Microsoft Yi Baiti';letter-spacing:0px;word-spacing:0px;display:inline;stroke-width:0.188562"
         x="145.11673"
         y="83.831909"
         id="text3660-7-0"><tspan
           sodipodi:role="line"
           id="tspan3658-8-2"
           style="font-size:7.05555px;stroke-width:0.188562"
           x="145.11673"
           y="83.831909">R3</tspan></text><rect
         style="display:inline;fill:#ffffff;fill-opacity:1;stroke:#000000;stroke-width:0.1;stroke-linecap:round;stroke-dasharray:none;stroke-dashoffset:0"
         id="rect4922-4-5"
         width="9.9000111"
         height="5.8999887"
         x="143.54979"
         y="86.256981" /><text
         xml:space="preserve"
         style="font-size:7.05555px;line-height:1;font-family:'Microsoft Yi Baiti';-inkscape-font-specification:'Microsoft Yi Baiti';letter-spacing:0px;word-spacing:0px;display:inline;stroke-width:0.188562"
         x="145.11671"
         y="91.093155"
         id="text3660-7-3-0"><tspan
           sodipodi:role="line"
           id="tspan3658-8-9-6"
           style="font-size:7.05555px;stroke-width:0.188562"
           x="145.11671"
           y="91.093155">R4</tspan></text><path
         style="display:inline;fill:none;stroke:#000000;stroke-width:0.264583px;stroke-linecap:butt;stroke-linejoin:miter;stroke-dasharray:none;stroke-dashoffset:0;stroke-opacity:1;marker-start:url(#Dot-2);marker-end:url(#marker4005-7)"
         d="M 124.181,111.3233 172.8186,96.588301"
         id="path3604-7" /><path
         style="display:inline;fill:none;stroke:#000000;stroke-width:0.264583px;stroke-linecap:butt;stroke-linejoin:miter;stroke-opacity:1"
         d="m 136.3404,96.588321 h 24.3188"
         id="path4971-9" /><rect
         style="display:inline;fill:#ffffff;fill-opacity:1;stroke:#000000;stroke-width:0.1;stroke-linecap:round;stroke-dasharray:none;stroke-dashoffset:0"
         id="rect4922-6"
         width="9.9000111"
         height="5.8999887"
         x="143.54979"
         y="93.744537" /><text
         xml:space="preserve"
         style="font-size:7.05555px;line-height:1;font-family:'Microsoft Yi Baiti';-inkscape-font-specification:'Microsoft Yi Baiti';letter-spacing:0px;word-spacing:0px;display:inline;stroke-width:0.188562"
         x="145.11671"
         y="98.580711"
         id="text3660-7-7"><tspan
           sodipodi:role="line"
           id="tspan3658-8-6"
           style="font-size:7.05555px;stroke-width:0.188562"
           x="145.11671"
           y="98.580711">R5</tspan></text><rect
         style="display:inline;fill:#ffffff;fill-opacity:1;stroke:#000000;stroke-width:0.1;stroke-linecap:round;stroke-dasharray:none;stroke-dashoffset:0"
         id="rect4922-4-9"
         width="9.9000111"
         height="5.8999887"
         x="143.54977"
         y="101.00578" /><text
         xml:space="preserve"
         style="font-size:7.05555px;line-height:1;font-family:'Microsoft Yi Baiti';-inkscape-font-specification:'Microsoft Yi Baiti';letter-spacing:0px;word-spacing:0px;display:inline;stroke-width:0.188562"
         x="145.1167"
         y="105.84196"
         id="text3660-7-3-1"><tspan
           sodipodi:role="line"
           id="tspan3658-8-9-9"
           style="font-size:7.05555px;stroke-width:0.188562"
           x="145.1167"
           y="105.84196">R6</tspan></text><path
         style="display:inline;fill:none;stroke:#000000;stroke-width:0.264583px;stroke-linecap:butt;stroke-linejoin:miter;stroke-dasharray:none;stroke-dashoffset:0;stroke-opacity:1;marker-start:url(#Dot-7);marker-end:url(#marker4005-3)"
         d="m 124.181,126.0721 48.6376,-14.735"
         id="path3604-9" /><path
         style="display:inline;fill:none;stroke:#000000;stroke-width:0.264583px;stroke-linecap:butt;stroke-linejoin:miter;stroke-opacity:1"
         d="m 136.3404,111.33711 h 24.3188"
         id="path4971-6" /><rect
         style="display:inline;fill:#ffffff;fill-opacity:1;stroke:#000000;stroke-width:0.1;stroke-linecap:round;stroke-dasharray:none;stroke-dashoffset:0"
         id="rect4922-5"
         width="9.9000111"
         height="5.8999887"
         x="143.5498"
         y="108.49334" /><text
         xml:space="preserve"
         style="font-size:7.05555px;line-height:1;font-family:'Microsoft Yi Baiti';-inkscape-font-specification:'Microsoft Yi Baiti';letter-spacing:0px;word-spacing:0px;display:inline;stroke-width:0.188562"
         x="145.11673"
         y="113.32952"
         id="text3660-7-2"><tspan
           sodipodi:role="line"
           id="tspan3658-8-8"
           style="font-size:7.05555px;stroke-width:0.188562"
           x="145.11673"
           y="113.32952">R7</tspan></text><rect
         style="display:inline;fill:#ffffff;fill-opacity:1;stroke:#000000;stroke-width:0.1;stroke-linecap:round;stroke-dasharray:none;stroke-dashoffset:0"
         id="rect4922-4-54"
         width="9.9000111"
         height="5.8999887"
         x="143.54979"
         y="115.75458" /><text
         xml:space="preserve"
         style="font-size:7.05555px;line-height:1;font-family:'Microsoft Yi Baiti';-inkscape-font-specification:'Microsoft Yi Baiti';letter-spacing:0px;word-spacing:0px;display:inline;stroke-width:0.188562"
         x="145.11671"
         y="120.59075"
         id="text3660-7-3-6"><tspan
           sodipodi:role="line"
           id="tspan3658-8-9-5"
           style="font-size:7.05555px;stroke-width:0.188562"
           x="145.11671"
           y="120.59075">R8</tspan></text><path
         style="display:inline;fill:none;stroke:#000000;stroke-width:0.264583px;stroke-linecap:butt;stroke-linejoin:miter;stroke-dasharray:none;stroke-dashoffset:0;stroke-opacity:1;marker-start:url(#Dot-74);marker-end:url(#marker4005-4)"
         d="m 124.181,140.76979 48.6376,-14.735"
         id="path3604-79" /><path
         style="display:inline;fill:none;stroke:#000000;stroke-width:0.264583px;stroke-linecap:butt;stroke-linejoin:miter;stroke-opacity:1"
         d="m 136.3404,126.03481 h 24.3188"
         id="path4971-7" /><rect
         style="display:inline;fill:#ffffff;fill-opacity:1;stroke:#000000;stroke-width:0.1;stroke-linecap:round;stroke-dasharray:none;stroke-dashoffset:0"
         id="rect4922-8"
         width="9.9000111"
         height="5.8999887"
         x="143.54979"
         y="123.19102" /><text
         xml:space="preserve"
         style="font-size:7.05555px;line-height:1;font-family:'Microsoft Yi Baiti';-inkscape-font-specification:'Microsoft Yi Baiti';letter-spacing:0px;word-spacing:0px;display:inline;stroke-width:0.188562"
         x="145.11671"
         y="128.02721"
         id="text3660-7-5"><tspan
           sodipodi:role="line"
           id="tspan3658-8-92"
           style="font-size:7.05555px;stroke-width:0.188562"
           x="145.11671"
           y="128.02721">R9</tspan></text><rect
         style="display:inline;fill:#ffffff;fill-opacity:1;stroke:#000000;stroke-width:0.1;stroke-linecap:round;stroke-dasharray:none;stroke-dashoffset:0"
         id="rect4922-4-4"
         width="9.9000111"
         height="5.8999887"
         x="143.54979"
         y="130.45229" /><text
         xml:space="preserve"
         style="font-size:7.05556px;line-height:1;font-family:'Microsoft Yi Baiti';-inkscape-font-specification:'Microsoft Yi Baiti';letter-spacing:-0.529167px;word-spacing:0px;display:inline;stroke-width:0.188562"
         x="143.46016"
         y="135.46365"
         id="text3660-7-3-5"><tspan
           sodipodi:role="line"
           id="tspan3658-8-9-8"
           style="font-size:7.05556px;stroke-width:0.188562"
           x="143.46016"
           y="135.46365"
           dx="0">R10</tspan></text></g></g></svg>
