0
SECTION
2
HEADER
9
$INSUNITS
70
4
9
$ACADVER
1
AC1014
9
$HANDSEED
5
FFFF
0
ENDSEC
0
SECTION
2
TABLES
0
TABLE
2
VPORT
5
8
100
AcDbSymbolTable
0
ENDTAB
0
TABLE
2
LTYPE
5
5
100
AcDbSymbolTable
0
LTYPE
5
14
100
AcDbSymbolTableRecord
100
AcDbLinetypeTableRecord
2
BYBLOCK
70
0
0
LTYPE
5
15
100
AcDbSymbolTableRecord
100
AcDbLinetypeTableRecord
2
BYLAYER
70
0
0
LTYPE
5
16
100
AcDbSymbolTableRecord
100
AcDbLinetypeTableRecord
2
DASHED
70
0
3
Dashed __ __ __ __ __ __ __ __ __ __ __ __ __ _
72
65
73
2
40
0.75
49
0.5
74
0
49
-0.25
74
0
0
ENDTAB
0
TABLE
2
LAYER
5
2
100
AcDbSymbolTable
70
2
0
LAYER
5
50
100
AcDbSymbolTableRecord
100
AcDbLayerTableRecord
2
0
70
0
62
7
6
CONTINUOUS
0
ENDTAB
0
TABLE
2
STYLE
5
3
100
AcDbSymbolTable
70
1
0
STYLE
5
11
100
AcDbSymbolTableRecord
100
AcDbTextStyleTableRecord
2
STANDARD
70
0
0
ENDTAB
0
TABLE
2
VIEW
5
6
100
AcDbSymbolTable
70
0
0
ENDTAB
0
TABLE
2
UCS
5
7
100
AcDbSymbolTable
70
0
0
ENDTAB
0
TABLE
2
APPID
5
9
100
AcDbSymbolTable
70
2
0
APPID
5
12
100
AcDbSymbolTableRecord
100
AcDbRegAppTableRecord
2
ACAD
70
0
0
ENDTAB
0
TABLE
2
DIMSTYLE
5
A
100
AcDbSymbolTable
70
1
0
ENDTAB
0
TABLE
2
BLOCK_RECORD
5
1
100
AcDbSymbolTable
70
1
0
BLOCK_RECORD
5
1F
100
AcDbSymbolTableRecord
100
AcDbBlockTableRecord
2
*MODEL_SPACE
0
BLOCK_RECORD
5
1B
100
AcDbSymbolTableRecord
100
AcDbBlockTableRecord
2
*PAPER_SPACE
0
ENDTAB
0
ENDSEC
0
SECTION
2
BLOCKS
0
BLOCK
5
20
100
AcDbEntity
100
AcDbBlockBegin
2
*MODEL_SPACE
0
ENDBLK
5
21
100
AcDbEntity
100
AcDbBlockEnd
0
BLOCK
5
1C
100
AcDbEntity
100
AcDbBlockBegin
2
*PAPER_SPACE
0
ENDBLK
5
1D
100
AcDbEntity
100
AcDbBlockEnd
0
ENDSEC
0
SECTION
2
ENTITIES
0
POINT
5
100
100
AcDbEntity
8
0
100
AcDbPoint
10
0
20
0
30
0
0
POINT
5
101
100
AcDbEntity
8
0
100
AcDbPoint
10
0
20
-41.000000000000007
30
0
0
CIRCLE
5
102
100
AcDbEntity
8
0
100
AcDbCircle
10
0
20
0
30
0
40
58.000000000000007
210
0
220
0
230
1
0
LINE
5
103
100
AcDbEntity
8
0
100
AcDbLine
10
-35.000000521540642
20
0
30
0
11
-35.000000521540642
21
17.00000025331974
31
0
0
LWPOLYLINE
5
104
100
AcDbEntity
8
0
100
AcDbPolyline
90
2
70
1
43
0.0
10
-35.000000521540642
20
17.00000025331974
10
-53.000000789761543
20
17.00000025331974
0
LINE
5
105
100
AcDbEntity
8
0
100
AcDbLine
10
-89.000001326203346
20
8.0000001192092896
30
0
11
-89.000001326203346
21
-6.0000000894069672
31
0
0
LINE
5
106
100
AcDbEntity
8
0
100
AcDbLine
10
-53.000000789761543
20
-15.000000223517418
30
0
11
-35.000000521540642
21
-15.000000223517418
31
0
0
LINE
5
107
100
AcDbEntity
8
0
100
AcDbLine
10
-35.000000521540642
20
-15.000000223517418
30
0
11
-35.000000521540642
21
17.00000025331974
31
0
0
LINE
5
108
100
AcDbEntity
8
0
100
AcDbLine
10
-53.000000789761543
20
17.00000025331974
30
0
11
-89.000001326203346
21
8.0000001192092896
31
0
0
LINE
5
109
100
AcDbEntity
8
0
100
AcDbLine
10
-53.000000789761543
20
-15.000000223517418
30
0
11
-89.000001326203346
21
-6.0000000894069672
31
0
0
CIRCLE
5
110
100
AcDbEntity
8
0
100
AcDbCircle
10
-74.000001102685928
20
1.0000000149011612
30
0
40
12
210
0
220
0
230
1
6
DASHED
0
LINE
5
111
100
AcDbEntity
8
0
100
AcDbLine
10
0
20
0
30
0
11
0
21
-41.000000000000007
31
0
6
DASHED
0
LINE
5
112
100
AcDbEntity
8
0
100
AcDbLine
10
31.000000461935997
20
-35.000000521540642
30
0
11
-31.000000461935997
21
-35.000000521540642
31
0
6
DASHED
0
LINE
5
113
100
AcDbEntity
8
0
100
AcDbLine
10
-31.000000461935997
20
-35.000000521540642
30
0
11
-31.000000461935997
21
-46.999999478459372
31
0
6
DASHED
0
LINE
5
114
100
AcDbEntity
8
0
100
AcDbLine
10
-31.000000461935997
20
-46.999999478459372
30
0
11
31.000000461935997
21
-46.999999478459372
31
0
6
DASHED
0
LINE
5
115
100
AcDbEntity
8
0
100
AcDbLine
10
31.000000461935997
20
-46.999999478459372
30
0
11
31.000000461935997
21
-35.000000521540642
31
0
6
DASHED
0
LINE
5
116
100
AcDbEntity
8
0
100
AcDbLine
10
31.000000461935997
20
-35.000000521540642
30
0
11
-31.000000461935997
21
-46.999999478459372
31
0
6
DASHED
0
LINE
5
117
100
AcDbEntity
8
0
100
AcDbLine
10
-31.000000461935997
20
-35.000000521540642
30
0
11
31.000000461935997
21
-46.999999478459372
31
0
6
DASHED
0
CIRCLE
5
118
100
AcDbEntity
8
0
100
AcDbCircle
10
-12.000000178813934
20
45.000000670552254
30
0
40
5.000000074505806
210
0
220
0
230
1
6
DASHED
0
CIRCLE
5
119
100
AcDbEntity
8
0
100
AcDbCircle
10
-23.000000342726707
20
36.000000536441803
30
0
40
1.4999999999999991
210
0
220
0
230
1
6
DASHED
0
LINE
5
120
100
AcDbEntity
8
0
100
AcDbLine
10
0
20
0
30
0
11
-26.000000387430191
21
0
31
0
6
DASHED
0
CIRCLE
5
121
100
AcDbEntity
8
0
100
AcDbCircle
10
-26.000000387430191
20
27.000000402331352
30
0
40
3.9999999999999991
210
0
220
0
230
1
6
DASHED
0
CIRCLE
5
122
100
AcDbEntity
8
0
100
AcDbCircle
10
-8.6666670574301907
20
27.000000402331352
30
0
40
3.9999999999999991
210
0
220
0
230
1
6
DASHED
0
CIRCLE
5
123
100
AcDbEntity
8
0
100
AcDbCircle
10
8.6666662725698096
20
27.000000402331352
30
0
40
3.9999999999999991
210
0
220
0
230
1
6
DASHED
0
CIRCLE
5
124
100
AcDbEntity
8
0
100
AcDbCircle
10
25.999999602569808
20
27.000000402331352
30
0
40
3.9999999999999991
210
0
220
0
230
1
6
DASHED
0
CIRCLE
5
125
100
AcDbEntity
8
0
100
AcDbCircle
10
-26.000000387430191
20
16.500000402331352
30
0
40
3.9999999999999991
210
0
220
0
230
1
6
DASHED
0
CIRCLE
5
126
100
AcDbEntity
8
0
100
AcDbCircle
10
-8.6666670574301907
20
16.500000402331352
30
0
40
3.9999999999999991
210
0
220
0
230
1
6
DASHED
0
CIRCLE
5
127
100
AcDbEntity
8
0
100
AcDbCircle
10
8.6666662725698096
20
16.500000402331352
30
0
40
3.9999999999999991
210
0
220
0
230
1
6
DASHED
0
CIRCLE
5
128
100
AcDbEntity
8
0
100
AcDbCircle
10
25.999999602569808
20
16.500000402331352
30
0
40
3.9999999999999991
210
0
220
0
230
1
6
DASHED
0
CIRCLE
5
129
100
AcDbEntity
8
0
100
AcDbCircle
10
-26.000000387430191
20
6.0000004023313513
30
0
40
3.9999999999999991
210
0
220
0
230
1
6
DASHED
0
CIRCLE
5
130
100
AcDbEntity
8
0
100
AcDbCircle
10
-8.6666670574301907
20
6.0000004023313513
30
0
40
3.9999999999999991
210
0
220
0
230
1
6
DASHED
0
CIRCLE
5
131
100
AcDbEntity
8
0
100
AcDbCircle
10
8.6666662725698096
20
6.0000004023313513
30
0
40
3.9999999999999991
210
0
220
0
230
1
6
DASHED
0
CIRCLE
5
132
100
AcDbEntity
8
0
100
AcDbCircle
10
25.999999602569808
20
6.0000004023313513
30
0
40
3.9999999999999991
210
0
220
0
230
1
6
DASHED
0
CIRCLE
5
133
100
AcDbEntity
8
0
100
AcDbCircle
10
-26.000000387430191
20
-4.4999995976686513
30
0
40
3.9999999999999991
210
0
220
0
230
1
6
DASHED
0
CIRCLE
5
134
100
AcDbEntity
8
0
100
AcDbCircle
10
-8.6666670574301907
20
-4.4999995976686513
30
0
40
3.9999999999999991
210
0
220
0
230
1
6
DASHED
0
CIRCLE
5
135
100
AcDbEntity
8
0
100
AcDbCircle
10
8.6666662725698096
20
-4.4999995976686513
30
0
40
3.9999999999999991
210
0
220
0
230
1
6
DASHED
0
CIRCLE
5
136
100
AcDbEntity
8
0
100
AcDbCircle
10
25.999999602569808
20
-4.4999995976686513
30
0
40
3.9999999999999991
210
0
220
0
230
1
6
DASHED
0
CIRCLE
5
137
100
AcDbEntity
8
0
100
AcDbCircle
10
-26.000000387430191
20
-14.99999959766865
30
0
40
3.9999999999999991
210
0
220
0
230
1
6
DASHED
0
CIRCLE
5
138
100
AcDbEntity
8
0
100
AcDbCircle
10
-8.6666670574301907
20
-14.99999959766865
30
0
40
3.9999999999999991
210
0
220
0
230
1
6
DASHED
0
CIRCLE
5
139
100
AcDbEntity
8
0
100
AcDbCircle
10
8.6666662725698096
20
-14.99999959766865
30
0
40
3.9999999999999991
210
0
220
0
230
1
6
DASHED
0
CIRCLE
5
140
100
AcDbEntity
8
0
100
AcDbCircle
10
25.999999602569808
20
-14.99999959766865
30
0
40
3.9999999999999991
210
0
220
0
230
1
6
DASHED
0
CIRCLE
5
141
100
AcDbEntity
8
0
100
AcDbCircle
10
-26.000000387430191
20
-25.499999597668648
30
0
40
3.9999999999999991
210
0
220
0
230
1
6
DASHED
0
CIRCLE
5
142
100
AcDbEntity
8
0
100
AcDbCircle
10
-8.6666670574301907
20
-25.499999597668648
30
0
40
3.9999999999999991
210
0
220
0
230
1
6
DASHED
0
CIRCLE
5
143
100
AcDbEntity
8
0
100
AcDbCircle
10
8.6666662725698096
20
-25.499999597668648
30
0
40
3.9999999999999991
210
0
220
0
230
1
6
DASHED
0
CIRCLE
5
144
100
AcDbEntity
8
0
100
AcDbCircle
10
25.999999602569808
20
-25.499999597668648
30
0
40
3.9999999999999991
210
0
220
0
230
1
6
DASHED
0
LWPOLYLINE
5
145
100
AcDbEntity
8
0
100
AcDbPolyline
90
6
70
1
43
0.0
10
53.000000789761543
20
17.00000025331974
10
89.000001326203346
20
8.0000001192092896
10
89.000001326203346
20
-6.0000000894069672
10
53.000000789761543
20
-15.000000223517418
10
35.000000521540642
20
-15.000000223517418
10
35.000000521540642
20
17.00000025331974
0
CIRCLE
5
146
100
AcDbEntity
8
0
100
AcDbCircle
10
74.000001102685928
20
1.0000000149011612
30
0
40
12
210
0
220
0
230
1
6
DASHED
0
CIRCLE
5
147
100
AcDbEntity
8
0
100
AcDbCircle
10
12.000000178813934
20
45.000000670552254
30
0
40
5.000000074505806
210
0
220
0
230
1
6
DASHED
0
CIRCLE
5
148
100
AcDbEntity
8
0
100
AcDbCircle
10
23.000000342726707
20
36.000000536441803
30
0
40
1.4999999999999991
210
0
220
0
230
1
6
DASHED
0
ENDSEC
0
SECTION
2
OBJECTS
0
DICTIONARY
5
C
100
AcDbDictionary
3
ACAD_GROUP
350
D
3
ACAD_MLINESTYLE
350
17
0
DICTIONARY
5
D
100
AcDbDictionary
0
DICTIONARY
5
1A
330
C
100
AcDbDictionary
0
DICTIONARY
5
17
100
AcDbDictionary
0
ENDSEC
0
EOF
